<svg xmlns="http://www.w3.org/2000/svg" width="22" height="22" viewBox="0 0 22 22">
    <g>
        <rect x="0" y="0" height="22" width="22" fill="#FFCC00"/>
        <rect x="2" y="2" height="2" width="5" fill="#000000"/>
        <rect x="15" y="2" height="2" width="5" fill="#000000"/>
        <rect x="15" y="4" height="6" width="1" fill="#000000"/>
        <rect x="7" y="10" height="2" width="9" fill="#000000"/>
        <rect x="11" y="12" height="2" width="1" fill="#000000"/>
        <rect x="9" y="14" height="2" width="5" fill="#000000"/>
        <rect x="0" y="20" height="2" width="1" fill="#000000"/>
        <rect x="2" y="20" height="2" width="1" fill="#000000"/>
        <rect x="4" y="19" height="3" width="1" fill="#000000"/>
        <rect x="6" y="20" height="1" width="1" fill="#000000"/>
        <rect x="8" y="20" height="2" width="1" fill="#000000"/>
        <rect x="9" y="20" height="1" width="1" fill="#000000"/>
        <rect x="10" y="19" height="3" width="1" fill="#000000"/>
        <rect x="12" y="19" height="3" width="1" fill="#000000"/>
        <rect x="13" y="20" height="1" width="1" fill="#000000"/>
        <rect x="14" y="20" height="2" width="1" fill="#000000"/>
        <rect x="16" y="20" height="1" width="1" fill="#000000"/>
        <rect x="18" y="19" height="3" width="1" fill="#000000"/>
        <rect x="20" y="20" height="2" width="1" fill="#000000"/>
    </g>
</svg>
